<svg width="50" height="50" viewBox="0 0 50 50" fill="none" xmlns="http://www.w3.org/2000/svg">
<g id="SPARK LAB Logo">
<g id="Layer 2">
<path id="Vector" d="M29.1308 38.0648H20.6085C20.2127 38.0648 19.8917 38.3858 19.8917 38.7817V38.7833C19.8917 39.1792 20.2127 39.5002 20.6085 39.5002H29.1308C29.5267 39.5002 29.8476 39.1792 29.8476 38.7833V38.7817C29.8476 38.3858 29.5267 38.0648 29.1308 38.0648Z" fill="#1C274C"/>
<path id="Vector_2" d="M29.1308 40.1471H20.6085C20.2127 40.1471 19.8917 40.4681 19.8917 40.864V40.8656C19.8917 41.2615 20.2127 41.5824 20.6085 41.5824H29.1308C29.5267 41.5824 29.8476 41.2615 29.8476 40.8656V40.864C29.8476 40.4681 29.5267 40.1471 29.1308 40.1471Z" fill="#1C274C"/>
<path id="Vector_3" d="M26.6949 42.2296C26.6949 43.2384 25.8786 44.0548 24.8697 44.0548C23.8608 44.0548 23.0444 43.2384 23.0444 42.2296" fill="#1C274C"/>
<path id="Vector_4" d="M28.5276 28.6295L26.7111 37.4255H22.5161L25.0584 31.624C25.1382 31.4377 24.9751 31.2403 24.77 31.2742L21.2199 31.867C21.0039 31.9026 20.8396 31.6829 20.9424 31.4955L23.8689 26.1521H21.518C21.3307 26.1521 21.2457 25.9264 21.3887 25.8096L25.9555 22.0733C26.0698 21.9804 26.2456 22.036 26.2806 22.1762L27.2111 25.9125C27.2415 26.0343 27.1456 26.1521 27.0158 26.1521H25.3105L24.7735 28.7524C24.7356 28.9353 24.9067 29.0944 25.094 29.051L28.2082 28.327C28.3972 28.283 28.5689 28.4454 28.5276 28.6295Z" fill="#1C274C"/>
</g>
<path id="Subtract" fill-rule="evenodd" clip-rule="evenodd" d="M26.4611 6.37836L30.8418 9.71813L30.4992 12.2125C29.9474 12.2995 29.5254 12.7772 29.5254 13.3534C29.5254 13.4205 29.5311 13.4863 29.5421 13.5502L18.5018 15.4589C18.3272 15.1039 18.0261 14.8223 17.6575 14.6728L17.4424 10.953L23.4428 6.37836C24.3339 5.69804 25.5701 5.69804 26.4611 6.37836ZM31.1849 12.3139L31.4751 10.2009L38.989 15.9294C39.6063 16.399 39.968 17.1324 39.968 17.909V19.9146H39.9679C39.8315 19.9146 39.7007 19.9382 39.5793 19.9816L31.7022 13.8931C31.7874 13.732 31.8357 13.5484 31.8357 13.3534C31.8357 12.8963 31.5701 12.5012 31.1849 12.3139ZM36.1784 30.4658L39.3421 22.0409C39.0236 21.8352 38.8127 21.4771 38.8127 21.0698C38.8127 20.8287 38.8866 20.605 39.0128 20.4198L31.3226 14.4757L33.2829 21.3792C33.9368 22.5793 34.339 23.9343 34.4167 25.3723L35.8591 30.4519C35.8885 30.4503 35.9182 30.4495 35.948 30.4495C36.0262 30.4495 36.1032 30.4551 36.1784 30.4658ZM29.0917 14.3315L18.6667 16.1338C18.667 16.1465 18.6671 16.1592 18.6671 16.172C18.6671 17.0651 17.9431 17.7892 17.0499 17.7892C16.9968 17.7892 16.9443 17.7866 16.8925 17.7816L16.1341 22.4182C17.5266 18.9055 20.9648 16.4069 24.9512 16.4056C25.4693 16.4058 25.9782 16.4481 26.4745 16.5293L29.0917 14.3315ZM30.1267 14.3674L27.3348 16.712C29.1931 17.1985 30.8347 18.2386 32.0697 19.644L30.6109 14.5065C30.4362 14.4961 30.272 14.4469 30.1267 14.3674ZM10.915 15.9294L16.7775 11.4599L16.9565 14.5574C16.1068 14.6058 15.4327 15.3102 15.4327 16.172C15.4327 16.2119 15.4342 16.2514 15.437 16.2906L10.1755 16.8405C10.3438 16.4865 10.5953 16.1726 10.915 15.9294ZM34.2967 27.4869L35.1912 30.6371C34.6794 30.9087 34.3308 31.447 34.3308 32.0667C34.3308 32.1856 34.3436 32.3015 34.368 32.413L31.3371 32.9515C31.4573 32.803 31.5849 32.6598 31.7195 32.5226C31.7627 32.4794 31.8058 32.4346 31.8473 32.3898C32.5193 31.678 33.0818 30.8616 33.5099 29.9689C33.8799 29.1938 34.1483 28.3609 34.2967 27.4869ZM36.8274 30.7092L39.968 22.3456V33.1744L37.5418 32.3425C37.5572 32.2529 37.5652 32.1607 37.5652 32.0667C37.5652 31.4978 37.2715 30.9975 36.8274 30.7092ZM37.2792 32.9852C36.9874 33.4073 36.5 33.6839 35.948 33.6839C35.4305 33.6839 34.9698 33.4408 34.6738 33.0627L30.7906 33.7525C30.3995 34.4416 30.1517 35.207 30.0801 36.0072C30.0569 36.261 30.0453 36.5182 30.0453 36.7771C30.0453 36.9911 30.0519 37.2068 30.0685 37.4176H37.479C38.8546 37.4176 39.968 36.3025 39.968 34.9269V33.9071L37.2792 32.9852ZM19.6451 35.0285C19.3836 34.0888 18.8761 33.2279 18.1845 32.5226C18.1413 32.4794 18.0982 32.4346 18.0567 32.3898C17.3847 31.678 16.8222 30.8616 16.3941 29.9689C15.9913 29.125 15.7089 28.2127 15.5706 27.2532C15.5254 27.2586 15.4794 27.2613 15.4328 27.2613C15.2864 27.2613 15.1465 27.2341 15.0176 27.1845L10.0963 30.0967L13.2818 35.5437C13.3354 35.5361 13.3902 35.5321 13.4459 35.5321C13.8124 35.5321 14.139 35.7028 14.3506 35.969L19.6451 35.0285ZM19.7886 35.7069L14.5996 36.6287C14.6005 36.6481 14.601 36.6677 14.601 36.6873C14.601 36.9643 14.5035 37.2186 14.3409 37.4176H19.8355C19.8521 37.2068 19.8587 36.9911 19.8587 36.7771C19.8587 36.5182 19.8471 36.261 19.8239 36.0072C19.8149 35.9065 19.8031 35.8064 19.7886 35.7069ZM16.2258 17.5637C15.9824 17.4193 15.7802 17.2128 15.6408 16.9661L9.95893 17.56C9.94266 17.6748 9.93433 17.7914 9.93433 17.909V22.5335L14.464 25.4768C14.5932 25.2784 14.7816 25.1222 15.0042 25.0332L16.2258 17.5637ZM9.93433 29.3872V23.36L14.2802 26.1839C14.2931 26.3778 14.3538 26.5586 14.4507 26.7146L9.93433 29.3872ZM9.93433 31.1927L12.6552 35.8452C12.4309 36.0559 12.2907 36.3552 12.2907 36.6873C12.2907 36.9643 12.3883 37.2186 12.5508 37.4176H12.425C11.0494 37.4176 9.93433 36.3025 9.93433 34.9269V31.1927ZM15.9409 31.2119C15.9409 31.5309 15.6823 31.7895 15.3633 31.7895C15.0443 31.7895 14.7858 31.5309 14.7858 31.2119C14.7858 30.8929 15.0443 30.6344 15.3633 30.6344C15.6823 30.6344 15.9409 30.8929 15.9409 31.2119ZM32.5056 36.0866C32.8246 36.0866 33.0832 35.828 33.0832 35.509C33.0832 35.19 32.8246 34.9315 32.5056 34.9315C32.1867 34.9315 31.9281 35.19 31.9281 35.509C31.9281 35.828 32.1867 36.0866 32.5056 36.0866ZM37.2879 24.3735C37.2879 24.6925 37.0293 24.9511 36.7104 24.9511C36.3914 24.9511 36.1328 24.6925 36.1328 24.3735C36.1328 24.0545 36.3914 23.7959 36.7104 23.7959C37.0293 23.7959 37.2879 24.0545 37.2879 24.3735ZM22.0632 13.9541C22.3822 13.9541 22.6408 13.6955 22.6408 13.3765C22.6408 13.0575 22.3822 12.799 22.0632 12.799C21.7443 12.799 21.4857 13.0575 21.4857 13.3765C21.4857 13.6955 21.7443 13.9541 22.0632 13.9541Z" fill="#1C274C"/>
<circle id="Ellipse 63" cx="9.12562" cy="14.7627" r="0.808599" fill="#1C274C"/>
<circle id="Ellipse 69" cx="7.04639" cy="36.618" r="0.808599" fill="#1C274C"/>
<circle id="Ellipse 64" cx="6.69982" cy="22.7794" r="1.15514" fill="#1C274C"/>
<circle id="Ellipse 70" cx="42.9713" cy="18.7595" r="1.15514" fill="#1C274C"/>
<circle id="Ellipse 73" cx="35.9249" cy="8.89458" r="0.808599" fill="#1C274C"/>
<circle id="Ellipse 74" cx="18.0895" cy="7.27739" r="0.808599" fill="#1C274C"/>
<circle id="Ellipse 72" cx="42.9481" cy="31.2119" r="0.808599" fill="#1C274C"/>
<circle id="Ellipse 71" cx="43.4334" cy="26.0138" r="1.6172" fill="#1C274C"/>
</g>
</svg>
